<svg xmlns="http://www.w3.org/2000/svg" width="209" height="41" viewBox="0 0 209 41" fill="none"><path d="M182.352 39.27V0.77002H188.292V39.27H182.352Z" fill="#2B612D"></path><path d="M154.379 39.27V0.77002H178.634V6.16002H160.319V17.215H177.094V22.605H160.319V33.88H178.909V39.27H154.379Z" fill="#2B612D"></path><path d="M122.378 39.27V0.77002H138.548C140.931 0.77002 143.021 1.19169 144.818 2.03502C146.651 2.84169 148.063 4.01502 149.053 5.55502C150.08 7.09502 150.593 8.92835 150.593 11.055V11.66C150.593 14.08 150.006 16.0234 148.833 17.49C147.696 18.92 146.303 19.9284 144.653 20.515V21.395C146.046 21.4684 147.165 21.945 148.008 22.825C148.851 23.6684 149.273 24.8967 149.273 26.51V39.27H143.278V27.335C143.278 26.345 143.021 25.5567 142.508 24.97C141.995 24.3834 141.17 24.09 140.033 24.09H128.318V39.27H122.378ZM128.318 18.7H137.888C140.015 18.7 141.665 18.1684 142.838 17.105C144.011 16.005 144.598 14.52 144.598 12.65V12.21C144.598 10.34 144.011 8.87335 142.838 7.81002C141.701 6.71002 140.051 6.16002 137.888 6.16002H128.318V18.7Z" fill="#2B612D"></path><path d="M102.131 40.04C99.3814 40.04 96.9247 39.4533 94.7614 38.28C92.598 37.07 90.893 35.31 89.6464 33C88.3997 30.69 87.7764 27.8667 87.7764 24.53V15.51C87.7764 10.4867 89.1514 6.655 91.9014 4.015C94.6514 1.33833 98.373 0 103.066 0C107.686 0 111.243 1.265 113.736 3.795C116.23 6.28833 117.476 9.64334 117.476 13.86V14.135H111.591V13.695C111.591 12.1183 111.28 10.7067 110.656 9.46C110.033 8.17667 109.098 7.16833 107.851 6.435C106.605 5.70167 105.01 5.335 103.066 5.335C100.133 5.335 97.8414 6.23333 96.1914 8.03C94.5414 9.79 93.7164 12.2467 93.7164 15.4V24.64C93.7164 27.7567 94.5414 30.2317 96.1914 32.065C97.8414 33.8617 100.151 34.76 103.121 34.76C106.055 34.76 108.2 33.9533 109.556 32.34C110.913 30.7267 111.591 28.6367 111.591 26.07V25.355H101.251V20.24H117.476V39.27H111.976V35.365H111.096C110.766 36.0617 110.271 36.7767 109.611 37.51C108.988 38.2433 108.071 38.8483 106.861 39.325C105.688 39.8017 104.111 40.04 102.131 40.04Z" fill="#2B612D"></path><path d="M77.5508 39.27V0.77002H83.4908V39.27H77.5508Z" fill="#2B612D"></path><path d="M32.2295 39.27V0.77002H43.3945L51.8095 35.31H52.6895L61.1045 0.77002H72.2695V39.27H66.4945V4.95002H65.6145L57.2545 39.27H47.2445L38.8845 4.95002H38.0045V39.27H32.2295Z" fill="#2B612D"></path><path d="M21.0146 39.27V0.77002H26.9546V39.27H21.0146Z" fill="#2B612D"></path><g clip-path="url(#clip0_118_59)"><path d="M14.5502 23.9875V22.4875L8.54944 19.1215V15.25C8.54944 15.25 8.54944 13 7.50019 13C6.45019 13 6.45019 15.25 6.45019 15.25V19.1215L0.450195 22.4875L0.450195 23.9875L6.45019 22.1215V24.8117L4.94944 26.5V28L7.49944 26.7993L10.0502 28V26.5L8.54944 24.8117L8.54944 22.1215L14.5502 23.9875Z" fill="#2B612D"></path></g><g clip-path="url(#clip1_118_59)"><path d="M208.55 23.9875V22.4875L202.549 19.1215V15.25C202.549 15.25 202.549 13 201.5 13C200.45 13 200.45 15.25 200.45 15.25V19.1215L194.45 22.4875V23.9875L200.45 22.1215V24.8117L198.949 26.5V28L201.499 26.7993L204.05 28V26.5L202.549 24.8117V22.1215L208.55 23.9875Z" fill="#2B612D"></path></g><defs><clipPath id="clip0_118_59"><rect width="15" height="15" fill="white" transform="matrix(0 -1 1 0 0 28)"></rect></clipPath><clipPath id="clip1_118_59"><rect width="15" height="15" fill="white" transform="matrix(0 -1 1 0 194 28)"></rect></clipPath></defs></svg>